<svg xmlns="http://www.w3.org/2000/svg" viewBox="0 0 1200 180" width="1200" height="180">
  <!-- Seamless Berlin skyline tile 1200×180. Edge roof height L/R = 30px. -->
  <!-- Fill matches Room05 (#0e1620). currentColor cannot colorize CSS background-image SVGs when a gold accent is also required. -->
  <path fill="#0e1620" d="M0 180 L0 150 L18 150 L18 145 L42 145 L42 150 L58 150 L58 142 L95 142 L95 150 L118 150 L118 118 L136 118 L136 82 L150 82 L150 52 L164 34 L178 52 L178 82 L192 82 L192 118 L210 118 L210 150 L235 150 L235 134 L272 134 L272 150 L295 150 L295 48 L314 48 L314 150 L330 150 L330 36 L348 36 L348 150 L370 150 L370 116 L385 116 L385 106 L397 106 L397 116 L409 116 L409 106 L421 106 L421 116 L433 116 L433 106 L445 106 L445 116 L457 116 L457 106 L469 106 L469 116 L481 116 L481 106 L493 106 L493 116 L505 116 L505 96 L525 96 L525 116 L540 116 L540 150 L562 150 L568 150 L571 94 L575 94 L578 58 L582 58 L584 26 L587 26 L588 10 L592 10 L593 26 L596 26 L598 58 L602 58 L605 94 L609 94 L612 150 L640 150 L640 122 L658 122 L658 66 L662 66 L662 112 L690 112 L698 76 L698 68 L728 68 L728 76 L736 112 L792 112 L792 66 L796 66 L796 122 L816 122 L816 150 L850 150 L850 144 L898 144 L898 150 L922 150 L922 140 L970 140 L970 150 L995 150 L995 145 L1048 145 L1048 150 L1072 150 L1072 142 L1128 142 L1128 150 L1152 150 L1152 145 L1200 145 L1200 150 L1200 180 Z"/>
  <rect x="588.5" y="6" width="3.5" height="4" fill="#F4D35E"/>
</svg>
